<svg width="32" height="32" viewBox="0 0 32 32" fill="none" xmlns="http://www.w3.org/2000/svg">
<rect width="32" height="32" rx="7" fill="#FFD0B3"/>
<path d="M16.376 27.54C14.4133 27.5827 12.696 27.3053 11.224 26.708C9.752 26.132 8.52533 25.3213 7.544 24.276C6.56267 23.2307 5.82667 22.0253 5.336 20.66C4.84533 19.2733 4.6 17.812 4.6 16.276C4.6 14.932 4.824 13.5773 5.272 12.212C5.72 10.8253 6.392 9.54533 7.288 8.372C8.20533 7.17733 9.35733 6.20667 10.744 5.46C12.152 4.692 13.816 4.25467 15.736 4.148C17.6347 4.04133 19.288 4.26533 20.696 4.82C22.1253 5.37467 23.3093 6.15333 24.248 7.156C25.208 8.15867 25.9227 9.28933 26.392 10.548C26.8827 11.7853 27.128 13.044 27.128 14.324C27.128 16.0093 26.8827 17.396 26.392 18.484C25.9013 19.572 25.2933 20.4147 24.568 21.012C23.8427 21.6093 23.096 22.0147 22.328 22.228C21.5813 22.42 20.9413 22.4733 20.408 22.388C19.6827 22.26 19.1387 22.0147 18.776 21.652C18.4133 21.268 18.1787 20.82 18.072 20.308C17.9867 19.7747 17.976 19.1987 18.04 18.58C18.1253 17.9613 18.2213 17.3427 18.328 16.724C17.6667 18.6653 16.9307 20.0733 16.12 20.948C15.3093 21.8227 14.4027 22.26 13.4 22.26C12.504 22.26 11.7147 21.908 11.032 21.204C10.3493 20.5 10.008 19.3693 10.008 17.812C10.008 16.6387 10.168 15.5293 10.488 14.484C10.808 13.4387 11.288 12.5107 11.928 11.7C12.568 10.8893 13.3573 10.2493 14.296 9.78C15.2347 9.31067 16.312 9.076 17.528 9.076C18.0187 9.076 18.584 9.108 19.224 9.172C19.864 9.236 20.4507 9.34267 20.984 9.492C20.8987 10.2173 20.8027 10.9533 20.696 11.7C20.6107 12.4467 20.5253 13.172 20.44 13.876C20.3547 14.58 20.2693 15.252 20.184 15.892C20.12 16.532 20.0667 17.1187 20.024 17.652C19.9813 18.2067 19.9707 18.7507 19.992 19.284C20.0347 19.796 20.1413 20.244 20.312 20.628C20.504 20.9907 20.792 21.2147 21.176 21.3C21.624 21.3853 22.0613 21.3213 22.488 21.108C22.9147 20.8947 23.2987 20.5427 23.64 20.052C24.0027 19.54 24.2907 18.9107 24.504 18.164C24.7173 17.4173 24.8347 16.5747 24.856 15.636C24.92 13.0547 24.536 11.0067 23.704 9.492C22.872 7.956 21.7307 6.868 20.28 6.228C18.8507 5.588 17.2507 5.34267 15.48 5.492C14.1573 5.59867 12.9733 5.96133 11.928 6.58C10.904 7.17733 10.0293 7.96667 9.304 8.948C8.57867 9.908 8.024 11.0067 7.64 12.244C7.256 13.46 7.064 14.74 7.064 16.084C7.064 17.812 7.32 19.3053 7.832 20.564C8.344 21.8227 9.03733 22.868 9.912 23.7C10.7867 24.5107 11.7787 25.108 12.888 25.492C13.9973 25.8973 15.1493 26.1213 16.344 26.164C17.0907 26.1853 17.9013 26.132 18.776 26.004C19.672 25.876 20.568 25.588 21.464 25.14C22.36 24.7133 23.1813 24.0627 23.928 23.188L24.696 23.988C23.672 25.1613 22.4453 26.036 21.016 26.612C19.608 27.188 18.0613 27.4973 16.376 27.54ZM13.944 21.044C14.52 21.044 15.0853 20.7027 15.64 20.02C16.216 19.3373 16.728 18.452 17.176 17.364C17.6453 16.276 18.0187 15.1133 18.296 13.876C18.5733 12.6173 18.712 11.4333 18.712 10.324C18.456 10.2173 18.1573 10.1427 17.816 10.1C17.496 10.0573 17.1333 10.036 16.728 10.036C15.9813 10.036 15.32 10.2707 14.744 10.74C14.1893 11.188 13.72 11.7853 13.336 12.532C12.9733 13.2573 12.696 14.068 12.504 14.964C12.3333 15.8387 12.248 16.692 12.248 17.524C12.248 18.5907 12.3973 19.444 12.696 20.084C12.9947 20.724 13.4107 21.044 13.944 21.044Z" fill="#FF7724" fill-opacity="0.8"/>
</svg>
