<svg width="32" height="32" viewBox="0 0 32 32" fill="none" xmlns="http://www.w3.org/2000/svg">
<rect width="32" height="32" rx="7" fill="#FFD0B3"/>
<path d="M20.7008 23.6583C19.8847 23.6583 19.0252 23.4743 18.1368 23.1197C17.27 22.772 16.3961 22.2948 15.5438 21.7153C14.6987 21.1289 13.8826 20.4744 13.1097 19.7585C12.3441 19.029 11.6507 18.2586 11.0368 17.4678C10.4157 16.6496 9.91729 15.8315 9.56337 15.0406C9.18779 14.1952 9 13.377 9 12.6066C9 12.0748 9.10112 11.5703 9.29613 11.0999C9.49837 10.6158 9.82339 10.1658 10.264 9.77723C10.8201 9.25908 11.4557 9 12.1347 9C12.4164 9 12.7053 9.06136 12.9508 9.17045C13.2325 9.29317 13.4709 9.47725 13.6442 9.72269L15.3199 11.9521C15.4716 12.1498 15.5871 12.3407 15.6666 12.5316C15.7605 12.7362 15.811 12.9407 15.811 13.1384C15.811 13.3975 15.7316 13.6498 15.5799 13.8884C15.4716 14.0725 15.3055 14.2702 15.096 14.4679L14.6048 14.952C14.6121 14.9724 14.6193 14.9861 14.6265 14.9997C14.7132 15.1429 14.8865 15.3883 15.2188 15.7565C15.5727 16.1383 15.9049 16.486 16.2372 16.8064C16.6633 17.2019 17.0172 17.5155 17.3495 17.7746C17.7612 18.1018 18.0284 18.2654 18.1873 18.3404L18.1729 18.3745L18.7001 17.8836C18.924 17.6723 19.1407 17.5155 19.3502 17.4132C19.7474 17.1814 20.253 17.1405 20.7586 17.3382C20.9464 17.4132 21.1486 17.5155 21.3653 17.6586L23.7633 19.2677C24.0305 19.4381 24.2255 19.6563 24.3411 19.9154C24.4494 20.1744 24.5 20.4131 24.5 20.6517C24.5 20.9789 24.4205 21.3062 24.2689 21.613C24.1172 21.9198 23.9294 22.1857 23.6911 22.4311C23.2794 22.8607 22.8315 23.1675 22.3115 23.3652C21.8131 23.5561 21.2714 23.6583 20.7008 23.6583ZM12.1347 10.0227C11.7374 10.0227 11.3691 10.1863 11.0151 10.5136C10.6829 10.8067 10.4518 11.1272 10.3073 11.4749C10.1556 11.8294 10.0834 12.2044 10.0834 12.6066C10.0834 13.2407 10.2423 13.9293 10.5601 14.6383C10.8851 15.361 11.3402 16.111 11.918 16.861C12.4958 17.6109 13.1531 18.3404 13.8753 19.029C14.5976 19.704 15.3777 20.3312 16.1794 20.8835C16.9595 21.4221 17.7612 21.8584 18.5557 22.1721C19.7908 22.6698 20.9464 22.7857 21.8998 22.4107C22.2682 22.2675 22.5932 22.0493 22.8893 21.7357C23.0555 21.5653 23.1855 21.3812 23.2938 21.163C23.3805 20.9926 23.4238 20.8153 23.4238 20.638C23.4238 20.529 23.4021 20.4199 23.3444 20.2972C23.3227 20.2562 23.2794 20.1812 23.1421 20.0926L20.7442 18.4836C20.5997 18.3882 20.4697 18.32 20.3469 18.2723C20.188 18.2109 20.123 18.1495 19.8774 18.2927C19.733 18.3609 19.603 18.4632 19.4585 18.5995L18.9096 19.1108C18.6279 19.3699 18.1945 19.4313 17.8623 19.3154L17.6673 19.2336C17.3712 19.0836 17.0245 18.8518 16.6417 18.545C16.295 18.2654 15.9194 17.9382 15.4644 17.5155C15.1104 17.1746 14.7565 16.8132 14.3882 16.411C14.0487 16.036 13.8031 15.7156 13.6514 15.4497L13.5648 15.2451C13.5214 15.0883 13.507 14.9997 13.507 14.9042C13.507 14.6588 13.6009 14.4406 13.7815 14.2702L14.3232 13.7384C14.4676 13.602 14.576 13.4725 14.6482 13.3566C14.706 13.268 14.7276 13.193 14.7276 13.1248C14.7276 13.0702 14.706 12.9884 14.6699 12.9066C14.6193 12.7975 14.5398 12.6748 14.4387 12.5453L12.763 10.309C12.6908 10.2136 12.6041 10.1454 12.4958 10.0977C12.3802 10.0499 12.2575 10.0227 12.1347 10.0227ZM18.1729 18.3813L18.0573 18.845L18.2523 18.3677C18.2162 18.3609 18.1873 18.3677 18.1729 18.3813Z" fill="#FF7724" fill-opacity="0.8"/>
<circle cx="16.5" cy="16.5" r="11.625" stroke="#FF7724" stroke-opacity="0.8" stroke-width="1.75"/>
</svg>
