<svg width="32" height="32" viewBox="0 0 32 32" fill="none" xmlns="http://www.w3.org/2000/svg">
<rect width="32" height="32" rx="7" fill="#B7B3FF"/>
<path d="M21.896 13.264C21.88 12.32 21.784 11.536 21.608 10.912C21.432 10.288 21.12 9.824 20.672 9.52C20.24 9.2 19.608 9.048 18.776 9.064H16.736L16.712 22.144C16.712 22.576 16.704 22.952 16.688 23.272C16.688 23.576 16.672 23.832 16.64 24.04C16.976 24.024 17.304 24.008 17.624 23.992C17.96 23.976 18.296 23.96 18.632 23.944V25H12.992V24.208C13.6 24.176 14.008 24.032 14.216 23.776C14.44 23.52 14.56 23.176 14.576 22.744C14.608 22.296 14.624 21.8 14.624 21.256L14.648 9.088L12.176 9.112C11.168 9.112 10.456 9.448 10.04 10.12C9.624 10.792 9.416 11.84 9.416 13.264H8.528L8.672 8.2H22.664L22.808 13.264H21.896Z" fill="#5D55FD"/>
</svg>
