<svg width="32" height="32" viewBox="0 0 32 32" fill="none" xmlns="http://www.w3.org/2000/svg">
<rect width="32" height="32" rx="7" fill="#B7B3FF"/>
<path d="M21.6634 15.2231H10.202C9.33179 15.2231 8.49719 14.861 7.88184 14.2163C7.26648 13.5717 6.92078 12.6973 6.92078 11.7856C6.92078 10.8739 7.26648 9.99961 7.88184 9.35495C8.49719 8.71029 9.33179 8.34813 10.202 8.34813H21.6634C22.5337 8.34813 23.3683 8.71029 23.9836 9.35495C24.599 9.99961 24.9447 10.8739 24.9447 11.7856C24.9447 12.6973 24.599 13.5717 23.9836 14.2163C23.3683 14.861 22.5337 15.2231 21.6634 15.2231Z" fill="#908AF9"/>
<path d="M10.202 9.73688C9.67989 9.73688 9.17913 9.95418 8.80991 10.341C8.4407 10.7278 8.23328 11.2524 8.23328 11.7994C8.23328 12.3464 8.4407 12.871 8.80991 13.2578C9.17913 13.6446 9.67989 13.8619 10.202 13.8619H21.6634C22.1856 13.8619 22.6863 13.6446 23.0556 13.2578C23.4248 12.871 23.6322 12.3464 23.6322 11.7994C23.6322 11.2524 23.4248 10.7278 23.0556 10.341C22.6863 9.95418 22.1856 9.73688 21.6634 9.73688H10.202Z" fill="#D9D7FF"/>
<path d="M21.6634 23.9716H10.202C9.33179 23.9716 8.49719 23.6094 7.88184 22.9647C7.26648 22.3201 6.92078 21.4457 6.92078 20.5341C6.92078 19.6224 7.26648 18.748 7.88184 18.1034C8.49719 17.4587 9.33179 17.0966 10.202 17.0966H21.6634C22.5337 17.0966 23.3683 17.4587 23.9836 18.1034C24.599 18.748 24.9447 19.6224 24.9447 20.5341C24.9447 21.4457 24.599 22.3201 23.9836 22.9647C23.3683 23.6094 22.5337 23.9716 21.6634 23.9716Z" fill="#908AF9"/>
<path d="M10.202 18.4853C9.67989 18.4853 9.17913 18.7026 8.80991 19.0894C8.4407 19.4762 8.23328 20.0008 8.23328 20.5478C8.23328 21.0948 8.4407 21.6194 8.80991 22.0062C9.17913 22.393 9.67989 22.6103 10.202 22.6103H21.6634C22.1856 22.6103 22.6863 22.393 23.0556 22.0062C23.4248 21.6194 23.6322 21.0948 23.6322 20.5478C23.6322 20.0008 23.4248 19.4762 23.0556 19.0894C22.6863 18.7026 22.1856 18.4853 21.6634 18.4853H10.202Z" fill="#D9D7FF"/>
<path d="M14.2413 21.2284H10.202C10.028 21.2284 9.86106 21.156 9.73799 21.0271C9.61492 20.8981 9.54578 20.7233 9.54578 20.5409C9.54578 20.3586 9.61492 20.1837 9.73799 20.0548C9.86106 19.9259 10.028 19.8534 10.202 19.8534H14.2413C14.4153 19.8534 14.5822 19.9259 14.7053 20.0548C14.8284 20.1837 14.8975 20.3586 14.8975 20.5409C14.8975 20.7233 14.8284 20.8981 14.7053 21.0271C14.5822 21.156 14.4153 21.2284 14.2413 21.2284ZM10.202 13.9066C9.80306 13.9059 9.41323 13.7813 9.0818 13.5486C8.75038 13.3159 8.49225 12.9855 8.34001 12.5991C8.18778 12.2128 8.14829 11.7878 8.22652 11.378C8.30475 10.9681 8.49721 10.5917 8.77955 10.2964C9.0619 10.0011 9.42147 9.8001 9.81283 9.71881C10.2042 9.63751 10.6098 9.67958 10.9783 9.83969C11.3469 9.9998 11.6618 10.2708 11.8834 10.6183C12.105 10.9659 12.2233 11.3745 12.2233 11.7925C12.2224 12.3535 12.0091 12.8912 11.6301 13.2876C11.2511 13.6839 10.7375 13.9066 10.202 13.9066ZM21.6634 22.5966C21.2741 22.5966 20.8934 22.4756 20.5697 22.249C20.2459 22.0223 19.9936 21.7002 19.8446 21.3233C19.6955 20.9465 19.6566 20.5318 19.7325 20.1317C19.8085 19.7316 19.996 19.3641 20.2713 19.0757C20.5467 18.7872 20.8975 18.5908 21.2794 18.5112C21.6613 18.4316 22.0571 18.4725 22.4168 18.6286C22.7766 18.7847 23.0841 19.049 23.3004 19.3882C23.5167 19.7274 23.6322 20.1261 23.6322 20.5341C23.6322 21.0811 23.4248 21.6057 23.0556 21.9925C22.6863 22.3793 22.1856 22.5966 21.6634 22.5966Z" fill="#5D55FD"/>
</svg>
