<svg width="22" height="24" viewBox="0 0 22 24" fill="none" xmlns="http://www.w3.org/2000/svg">
<path d="M20.3114 5.26995C16.7388 4.91591 13.1447 4.73352 9.56139 4.73352C7.43713 4.73352 5.31288 4.84081 3.18863 5.05538L1 5.26995" fill="#FFC2D1"/>
<path d="M20.3114 5.26995C16.7388 4.91591 13.1447 4.73352 9.56139 4.73352C7.43713 4.73352 5.31288 4.84081 3.18863 5.05538L1 5.26995" stroke="#F9818E" stroke-width="1.60928" stroke-linecap="round" stroke-linejoin="round"/>
<g opacity="0.6">
<path d="M6.90071 4.18638L7.13674 2.78094C7.30839 1.76173 7.43713 1 9.25026 1H12.0611C13.8743 1 14.0137 1.80464 14.1747 2.79167L14.4107 4.18638" fill="#FFC2D1"/>
<path d="M6.90071 4.18638L7.13674 2.78094C7.30839 1.76173 7.43713 1 9.25026 1H12.0611C13.8743 1 14.0137 1.80464 14.1747 2.79167L14.4107 4.18638" stroke="#B90000" stroke-width="1.60928" stroke-linecap="round" stroke-linejoin="round"/>
</g>
<path d="M18.0052 8.66034L17.3078 19.464C17.1898 21.1483 17.0933 22.4572 14.1 22.4572H7.21225C4.21899 22.4572 4.12243 21.1483 4.00442 19.464L3.30706 8.66034" fill="#FFC2D1"/>
<path d="M18.0052 8.66034L17.3078 19.464C17.1898 21.1483 17.0933 22.4572 14.1 22.4572H7.21225C4.21899 22.4572 4.12243 21.1483 4.00442 19.464L3.30706 8.66034" stroke="#F9818E" stroke-width="1.60928" stroke-linecap="round" stroke-linejoin="round"/>
<g opacity="0.6">
<path d="M8.86414 16.5564H12.4368Z" fill="#FFC2D1"/>
<path d="M8.86414 16.5564H12.4368" stroke="#B90000" stroke-width="1.60928" stroke-linecap="round" stroke-linejoin="round"/>
</g>
<g opacity="0.6">
<path d="M7.97356 12.265H13.3378Z" fill="#FFC2D1"/>
<path d="M7.97356 12.265H13.3378" stroke="#B90000" stroke-width="1.60928" stroke-linecap="round" stroke-linejoin="round"/>
</g>
</svg>
