<svg width="32" height="32" viewBox="0 0 32 32" fill="none" xmlns="http://www.w3.org/2000/svg">
<rect width="32" height="32" rx="7" fill="#FFD0B3"/>
<path d="M16.1402 17.7791C16.1169 17.7791 16.082 17.7791 16.0588 17.7791C16.0239 17.7791 15.9774 17.7791 15.9425 17.7791C13.3029 17.6977 11.3262 15.6396 11.3262 13.1047C11.3262 10.5233 13.4308 8.41864 16.0123 8.41864C18.5937 8.41864 20.6983 10.5233 20.6983 13.1047C20.6867 15.6512 18.6983 17.6977 16.1751 17.7791C16.1518 17.7791 16.1518 17.7791 16.1402 17.7791ZM16.0006 10.1512C14.3727 10.1512 13.0587 11.4768 13.0587 13.0931C13.0587 14.6861 14.303 15.9768 15.8844 16.0349C15.9192 16.0233 16.0355 16.0233 16.1518 16.0349C17.7099 15.9535 18.9309 14.6745 18.9425 13.0931C18.9425 11.4768 17.6285 10.1512 16.0006 10.1512Z" fill="#FF7724" fill-opacity="0.8"/>
<path d="M16.0009 28.5001C12.8731 28.5001 9.88468 27.3373 7.57073 25.221C7.36143 25.035 7.2684 24.7559 7.29166 24.4885C7.44282 23.1047 8.30329 21.814 9.73352 20.8606C13.1986 18.5582 18.8149 18.5582 22.2684 20.8606C23.6986 21.8257 24.5591 23.1047 24.7103 24.4885C24.7451 24.7675 24.6405 25.035 24.4312 25.221C22.1172 27.3373 19.1289 28.5001 16.0009 28.5001ZM9.11724 24.2559C11.0475 25.8722 13.4777 26.7559 16.0009 26.7559C18.5242 26.7559 20.9544 25.8722 22.8847 24.2559C22.6754 23.5466 22.1172 22.8606 21.2916 22.3024C18.4312 20.3954 13.5824 20.3954 10.6986 22.3024C9.87305 22.8606 9.32654 23.5466 9.11724 24.2559Z" fill="#FF7724" fill-opacity="0.8"/>
<path d="M16 28.5C9.10465 28.5 3.5 22.8953 3.5 16C3.5 9.10465 9.10465 3.5 16 3.5C22.8953 3.5 28.5 9.10465 28.5 16C28.5 22.8953 22.8953 28.5 16 28.5ZM16 5.24419C10.0698 5.24419 5.24419 10.0698 5.24419 16C5.24419 21.9302 10.0698 26.7558 16 26.7558C21.9302 26.7558 26.7558 21.9302 26.7558 16C26.7558 10.0698 21.9302 5.24419 16 5.24419Z" fill="#FF7724" fill-opacity="0.8"/>
</svg>
